<mxfile host="app.diagrams.net" agent="Mozilla/5.0 (Windows NT 10.0; Win64; x64) AppleWebKit/537.36 (KHTML, like Gecko) Chrome/131.0.0.0 Safari/537.36 OPR/116.0.0.0" version="26.0.16">
  <diagram name="Page-1" id="e7e014a7-5840-1c2e-5031-d8a46d1fe8dd">
    <mxGraphModel dx="1632" dy="753" grid="1" gridSize="10" guides="1" tooltips="1" connect="1" arrows="1" fold="1" page="1" pageScale="1" pageWidth="1169" pageHeight="826" background="none" math="0" shadow="0">
      <root>
        <mxCell id="0" />
        <mxCell id="1" parent="0" />
        <mxCell id="Ka309weubP26LwEYgISK-41" value="FlashCard" style="swimlane;fontStyle=1;align=center;verticalAlign=top;childLayout=stackLayout;horizontal=1;startSize=26;horizontalStack=0;resizeParent=1;resizeParentMax=0;resizeLast=0;collapsible=1;marginBottom=0;whiteSpace=wrap;html=1;" vertex="1" parent="1">
          <mxGeometry x="110" y="200" width="190" height="300" as="geometry" />
        </mxCell>
        <mxCell id="Ka309weubP26LwEYgISK-42" value="- question: String&lt;div&gt;- answer: String&lt;/div&gt;&lt;div&gt;- difficulty: int&lt;/div&gt;" style="text;strokeColor=none;fillColor=none;align=left;verticalAlign=top;spacingLeft=4;spacingRight=4;overflow=hidden;rotatable=0;points=[[0,0.5],[1,0.5]];portConstraint=eastwest;whiteSpace=wrap;html=1;" vertex="1" parent="Ka309weubP26LwEYgISK-41">
          <mxGeometry y="26" width="190" height="84" as="geometry" />
        </mxCell>
        <mxCell id="Ka309weubP26LwEYgISK-43" value="" style="line;strokeWidth=1;fillColor=none;align=left;verticalAlign=middle;spacingTop=-1;spacingLeft=3;spacingRight=3;rotatable=0;labelPosition=right;points=[];portConstraint=eastwest;strokeColor=inherit;" vertex="1" parent="Ka309weubP26LwEYgISK-41">
          <mxGeometry y="110" width="190" height="8" as="geometry" />
        </mxCell>
        <mxCell id="Ka309weubP26LwEYgISK-44" value="+ getQuestion(): String&lt;div&gt;+ getAnswer(): String&lt;/div&gt;&lt;div&gt;+ getDifficulty(): int&lt;/div&gt;&lt;div&gt;+ setQuestion(question: String)&lt;/div&gt;&lt;div&gt;+ setAnswer(): (answer: String)&lt;/div&gt;&lt;div&gt;+ setDifficulty (difficult: int)&lt;/div&gt;&lt;div&gt;+ editFlashCard(newQuestion: String, newAnswer: String, newDifficulty: int)&lt;/div&gt;&lt;div&gt;+ toString(): String&lt;/div&gt;" style="text;strokeColor=none;fillColor=none;align=left;verticalAlign=top;spacingLeft=4;spacingRight=4;overflow=hidden;rotatable=0;points=[[0,0.5],[1,0.5]];portConstraint=eastwest;whiteSpace=wrap;html=1;" vertex="1" parent="Ka309weubP26LwEYgISK-41">
          <mxGeometry y="118" width="190" height="182" as="geometry" />
        </mxCell>
        <mxCell id="Ka309weubP26LwEYgISK-46" value="Deck" style="swimlane;fontStyle=1;align=center;verticalAlign=top;childLayout=stackLayout;horizontal=1;startSize=26;horizontalStack=0;resizeParent=1;resizeParentMax=0;resizeLast=0;collapsible=1;marginBottom=0;whiteSpace=wrap;html=1;" vertex="1" parent="1">
          <mxGeometry x="380" y="200" width="160" height="280" as="geometry" />
        </mxCell>
        <mxCell id="Ka309weubP26LwEYgISK-47" value="- name: String&lt;div&gt;- flashCards: List&amp;lt;FlashCard&amp;gt;&lt;/div&gt;" style="text;strokeColor=none;fillColor=none;align=left;verticalAlign=top;spacingLeft=4;spacingRight=4;overflow=hidden;rotatable=0;points=[[0,0.5],[1,0.5]];portConstraint=eastwest;whiteSpace=wrap;html=1;" vertex="1" parent="Ka309weubP26LwEYgISK-46">
          <mxGeometry y="26" width="160" height="84" as="geometry" />
        </mxCell>
        <mxCell id="Ka309weubP26LwEYgISK-48" value="" style="line;strokeWidth=1;fillColor=none;align=left;verticalAlign=middle;spacingTop=-1;spacingLeft=3;spacingRight=3;rotatable=0;labelPosition=right;points=[];portConstraint=eastwest;strokeColor=inherit;" vertex="1" parent="Ka309weubP26LwEYgISK-46">
          <mxGeometry y="110" width="160" height="8" as="geometry" />
        </mxCell>
        <mxCell id="Ka309weubP26LwEYgISK-49" value="+ getName(): String&lt;div&gt;+ setName(): (name:String)&lt;/div&gt;&lt;div&gt;+getFlashCards(): List&amp;lt;FlashCard&amp;gt;&lt;/div&gt;&lt;div&gt;+ addFlashcard: (card: FlashCard)&lt;/div&gt;&lt;div&gt;+ removeFlashcard(card: FlashCard)&lt;/div&gt;&lt;div&gt;+ shuffleDeck()&lt;/div&gt;" style="text;strokeColor=none;fillColor=none;align=left;verticalAlign=top;spacingLeft=4;spacingRight=4;overflow=hidden;rotatable=0;points=[[0,0.5],[1,0.5]];portConstraint=eastwest;whiteSpace=wrap;html=1;" vertex="1" parent="Ka309weubP26LwEYgISK-46">
          <mxGeometry y="118" width="160" height="162" as="geometry" />
        </mxCell>
        <mxCell id="Ka309weubP26LwEYgISK-53" value="" style="edgeStyle=orthogonalEdgeStyle;rounded=0;orthogonalLoop=1;jettySize=auto;html=1;" edge="1" parent="1" source="Ka309weubP26LwEYgISK-42" target="Ka309weubP26LwEYgISK-47">
          <mxGeometry relative="1" as="geometry" />
        </mxCell>
        <mxCell id="Ka309weubP26LwEYgISK-54" value="Main" style="swimlane;fontStyle=1;align=center;verticalAlign=top;childLayout=stackLayout;horizontal=1;startSize=26;horizontalStack=0;resizeParent=1;resizeParentMax=0;resizeLast=0;collapsible=1;marginBottom=0;whiteSpace=wrap;html=1;" vertex="1" parent="1">
          <mxGeometry x="600" y="200" width="160" height="158" as="geometry" />
        </mxCell>
        <mxCell id="Ka309weubP26LwEYgISK-55" value="+ scanner: Scanner&lt;div&gt;meuDeck: Deck&lt;/div&gt;" style="text;strokeColor=none;fillColor=none;align=left;verticalAlign=top;spacingLeft=4;spacingRight=4;overflow=hidden;rotatable=0;points=[[0,0.5],[1,0.5]];portConstraint=eastwest;whiteSpace=wrap;html=1;" vertex="1" parent="Ka309weubP26LwEYgISK-54">
          <mxGeometry y="26" width="160" height="44" as="geometry" />
        </mxCell>
        <mxCell id="Ka309weubP26LwEYgISK-56" value="" style="line;strokeWidth=1;fillColor=none;align=left;verticalAlign=middle;spacingTop=-1;spacingLeft=3;spacingRight=3;rotatable=0;labelPosition=right;points=[];portConstraint=eastwest;strokeColor=inherit;" vertex="1" parent="Ka309weubP26LwEYgISK-54">
          <mxGeometry y="70" width="160" height="8" as="geometry" />
        </mxCell>
        <mxCell id="Ka309weubP26LwEYgISK-57" value="+ main(args: String[])&lt;div&gt;+ criarDeck()&lt;/div&gt;&lt;div&gt;+ adicionarFlashCard()&lt;/div&gt;&lt;div&gt;+ exibirDeck()&amp;nbsp;&lt;/div&gt;" style="text;strokeColor=none;fillColor=none;align=left;verticalAlign=top;spacingLeft=4;spacingRight=4;overflow=hidden;rotatable=0;points=[[0,0.5],[1,0.5]];portConstraint=eastwest;whiteSpace=wrap;html=1;" vertex="1" parent="Ka309weubP26LwEYgISK-54">
          <mxGeometry y="78" width="160" height="80" as="geometry" />
        </mxCell>
        <mxCell id="Ka309weubP26LwEYgISK-58" value="" style="edgeStyle=orthogonalEdgeStyle;rounded=0;orthogonalLoop=1;jettySize=auto;html=1;" edge="1" parent="1" source="Ka309weubP26LwEYgISK-47" target="Ka309weubP26LwEYgISK-57">
          <mxGeometry relative="1" as="geometry" />
        </mxCell>
      </root>
    </mxGraphModel>
  </diagram>
</mxfile>
